<svg xmlns="http://www.w3.org/2000/svg" width="147" height="24" viewBox="0 0 147 24">
    <g fill="none" fill-rule="evenodd">
        <path fill="#FFF" d="M16.162 12.158c0-2.134-1.75-3.864-3.907-3.864s-3.906 1.73-3.906 3.864c0 1.653 1.054 3.052 2.528 3.604l-1.492 7.921h5.783l-1.495-7.933c1.455-.563 2.489-1.954 2.489-3.592"/>
        <path fill="#EE7C20" d="M18.545 22.516l-.79-5.17a7.1 7.1 0 0 0 1.918-4.846c0-3.985-3.292-7.215-7.351-7.215-4.06 0-7.353 3.23-7.353 7.215a7.11 7.11 0 0 0 1.888 4.815l-.79 5.183C2.47 20.41.037 16.588 0 12.196v-.208C.057 5.358 5.552 0 12.322 0c6.79 0 12.298 5.393 12.32 12.051v.081c-.014 4.432-2.465 8.29-6.098 10.384"/>
        <text fill="#FFF" font-family="ProximaSoft-Bold, Proxima Soft" font-size="18" font-weight="bold">
            <tspan x="32" y="18">Access Se</tspan> <tspan x="114.44" y="18">rv</tspan> <tspan x="130.154" y="18">er</tspan>
        </text>
    </g>
</svg>
